<svg width="200" height="80" viewBox="0 0 200 80" fill="none" xmlns="http://www.w3.org/2000/svg">
<g clip-path="url(#clip0_4_66)">
<path d="M162.076 52.0246C161.686 52.0246 161.417 51.7539 161.417 51.3645V32.0209H154.846C154.455 32.0209 154.185 31.7514 154.185 31.3615V28.6933C154.185 28.3025 154.455 28.0322 154.846 28.0322H172.337C172.727 28.0322 172.996 28.3028 172.996 28.6933V31.3614C172.996 31.7509 172.727 32.0209 172.337 32.0209H165.766V51.3642C165.766 51.7539 165.496 52.0246 165.107 52.0246H162.076ZM111.74 42.3672L108.291 32.4714L104.811 42.3672H111.74ZM119.391 51.243C119.542 51.6339 119.301 52.0246 118.881 52.0246H115.762C115.311 52.0246 115.041 51.8153 114.89 51.3935L113.121 46.297H103.432L101.659 51.3935C101.51 51.8155 101.239 52.0246 100.79 52.0246H97.8512C97.4606 52.0246 97.1901 51.6338 97.3403 51.243L105.47 28.6333C105.621 28.212 105.891 28.0333 106.34 28.0333H110.36C110.811 28.0333 111.111 28.2122 111.261 28.6333L119.391 51.243ZM142.695 48.7851C144.614 48.7851 145.905 47.857 146.955 46.2668L142.096 41.0479C140.235 42.0984 139.034 43.1467 139.034 45.2465C139.035 47.3162 140.714 48.7851 142.695 48.7851ZM144.045 31.211C142.485 31.211 141.585 32.2016 141.585 33.5209C141.585 34.5405 142.124 35.4403 143.355 36.7602C145.485 35.5297 146.385 34.7804 146.385 33.4612C146.385 32.2307 145.605 31.211 144.045 31.211ZM157.336 51.1848C157.726 51.605 157.486 52.0246 157.005 52.0246H153.195C152.685 52.0246 152.415 51.9041 152.085 51.5138L149.805 48.9957C148.276 51.0352 146.144 52.5642 142.604 52.5642C138.224 52.5642 134.773 49.9253 134.773 45.3978C134.773 41.9178 136.634 40.0581 139.455 38.499C138.074 36.9096 137.445 35.2301 137.445 33.7613C137.445 30.0416 140.055 27.4929 143.984 27.4929C148.004 27.4929 150.465 29.863 150.465 33.371C150.465 36.37 148.305 38.0479 146.025 39.3084L149.385 42.9384L151.275 39.6383C151.515 39.249 151.785 39.0985 152.264 39.0985H155.174C155.655 39.0985 155.925 39.4293 155.625 39.9388L152.265 45.6959L157.336 51.1848ZM127.396 52.0246C127.786 52.0246 128.057 51.7539 128.057 51.3645V32.0209H134.627C135.017 32.0209 135.286 31.7514 135.286 31.3615V28.6933C135.286 28.3025 135.017 28.0322 134.627 28.0322H117.135C116.745 28.0322 116.475 28.3028 116.475 28.6933V31.3614C116.475 31.7509 116.745 32.0209 117.135 32.0209H123.705V51.3642C123.705 51.7539 123.976 52.0246 124.365 52.0246H127.396Z" fill="white"/>
<path d="M38.6078 63.6927C43.6957 67.6312 50.0819 69.9976 57.0106 69.9976C64.5929 69.9976 71.5053 67.1826 76.7808 62.5616C76.8447 62.5051 76.8132 62.4677 76.7501 62.5051C74.3828 64.0861 67.6358 67.5372 57.0109 67.5372C47.7774 67.5372 41.9422 65.477 38.6469 63.6377C38.5838 63.6066 38.5605 63.6539 38.6078 63.6927ZM59.0477 65.2261C66.4329 65.2261 74.5482 63.213 79.4019 59.2279C80.7301 58.1421 81.9952 56.697 83.1283 54.7549C83.7806 53.6375 84.4186 52.3098 84.9382 51.0048C84.9612 50.9412 84.922 50.9102 84.8741 50.9818C80.3605 57.624 67.2902 61.767 53.7944 61.767C44.2551 61.767 33.991 58.7165 29.9725 52.8918C29.933 52.8379 29.8934 52.861 29.9175 52.9228C33.661 60.8795 45.0179 65.2261 59.0477 65.2261ZM50.9788 52.0264C35.6191 52.0264 28.3768 44.8727 27.063 39.9909C27.0468 39.9203 27.0002 39.9357 27.0002 39.9992C27.0002 41.6427 27.1647 43.7636 27.4477 45.1714C27.5828 45.8566 28.1405 46.932 28.9581 47.7892C32.6774 51.666 41.95 57.0982 58.0088 57.0982C79.8882 57.0982 84.8909 49.81 85.9124 47.4133C86.6429 45.6991 87.0214 42.6015 87.0214 39.9994C87.0214 39.3697 87.0056 38.8667 86.9819 38.373C86.9819 38.2928 86.9354 38.2863 86.9194 38.3644C85.826 44.2291 67.1326 52.0264 50.9788 52.0264ZM29.8934 27.1299C29.0133 28.8766 28.0377 31.8233 27.7477 33.3484C27.6206 34.0019 27.6747 34.3157 27.9039 34.8033C29.7448 38.7093 39.0567 44.9588 60.7778 44.9588C74.0292 44.9588 84.3232 41.7033 85.991 35.7624C86.298 34.6687 86.3145 33.5141 85.92 31.9582C85.4792 30.2195 84.6537 28.192 83.955 26.7684C83.9319 26.722 83.8912 26.7288 83.8995 26.7837C84.159 34.5758 62.4294 39.5977 51.4656 39.5977C39.5898 39.5977 29.6821 34.8661 29.6821 28.8915C29.6821 28.3174 29.8009 27.7432 29.9492 27.1457C29.964 27.0911 29.9173 27.082 29.8934 27.1299ZM76.8294 17.5629C76.9555 17.7605 77.0184 17.9714 77.0184 18.2553C77.0184 21.5884 66.8173 27.4847 50.5786 27.4847C38.6469 27.4847 36.413 23.0584 36.413 20.2435C36.413 19.2373 36.7989 18.2077 37.6488 17.1621C37.6952 17.0999 37.6558 17.076 37.6023 17.1222C36.0522 18.4358 34.628 19.9139 33.3786 21.5095C32.7816 22.2641 32.411 22.9326 32.411 23.3331C32.411 29.1666 47.0382 33.3961 60.7151 33.3961C75.2881 33.3961 81.7919 28.6388 81.7919 24.458C81.7919 22.9639 81.2103 22.0916 79.7224 20.4006C78.7566 19.3005 77.843 18.4047 76.8761 17.523C76.8294 17.4845 76.7968 17.5159 76.8294 17.5629ZM72.3618 14.2305C67.8643 11.5347 62.6415 10.001 57.0109 10.001C51.3411 10.001 45.9609 11.5883 41.4472 14.3555C40.0933 15.1887 39.3313 15.8565 39.3313 16.7149C39.3313 19.2452 45.2447 21.9658 55.736 21.9658C66.1183 21.9658 74.1711 18.9858 74.1711 16.1173C74.1711 15.4326 73.5726 14.9536 72.3618 14.2305Z" fill="white"/>
</g>
<defs>
<clipPath id="clip0_4_66">
<rect width="145.996" height="60" fill="white" transform="translate(27 10)"/>
</clipPath>
</defs>
</svg>
