<svg width="200" height="80" viewBox="0 0 200 80" fill="none" xmlns="http://www.w3.org/2000/svg">
<path d="M147.093 50.5359C145.707 49.8123 145.492 47.7676 145.522 42.7945L145.553 35.1733L142.905 35.1702L143.521 33.7599H145.553V30.1509L150.419 28.3464V33.6398L152.666 33.6428L152.081 35.2071L150.419 35.2041V48.3927C150.511 49.4551 150.88 50.0802 151.373 50.5359H147.093Z" fill="white"/>
<path d="M75.0372 62.6251C74.8832 62.1971 74.5753 61.9231 74.1134 61.9231C73.4667 61.9231 73.2204 62.2556 73.2204 62.7144C73.2204 63.8076 75.6838 63.6074 75.6838 65.4612C75.6838 66.4958 74.7908 67.241 73.5283 67.241C73.0972 67.241 72.6045 67.1363 72.235 66.893C72.3274 66.5512 72.4197 66.2125 72.4813 65.8646H72.6353C72.7277 66.4219 73.1896 66.7545 73.7438 66.7545C74.2365 66.7545 74.6984 66.4712 74.6984 65.9138C74.6984 64.6174 72.2658 65.0886 72.2658 63.1363C72.2658 62.2064 72.9124 61.4365 74.1442 61.4365C74.7292 61.4365 75.2527 61.6551 75.4067 61.8245C75.3143 62.0832 75.2527 62.3511 75.1603 62.6251H75.0372Z" fill="white"/>
<path d="M99.1481 17.9475C99.5177 18.9668 100.38 20.0199 99.764 21.2024C99.4869 22.4033 98.3475 23.3764 97.1466 23.5704C95.8841 23.6843 94.7139 23.4718 93.7594 22.7112C93.1127 19.2439 94.5292 16.0353 97.2698 14.123L99.1481 17.9475Z" fill="white"/>
<mask id="mask0_4_91" style="mask-type:luminance" maskUnits="userSpaceOnUse" x="44" y="12" width="112" height="56">
<path d="M44.7675 67.2412H155.469V12.759H44.7675V67.2412Z" fill="white"/>
</mask>
<g mask="url(#mask0_4_91)">
<path d="M103.983 28.5129C103.367 30.6099 97.1773 29.2334 95.2373 25.7907C97.7931 26.074 100.657 23.8138 100.719 21.2364L103.983 28.5129Z" fill="white"/>
</g>
<mask id="mask1_4_91" style="mask-type:luminance" maskUnits="userSpaceOnUse" x="44" y="12" width="112" height="56">
<path d="M44.7675 67.2412H155.469V12.759H44.7675V67.2412Z" fill="white"/>
</mask>
<g mask="url(#mask1_4_91)">
<path d="M106.538 28.2417C106.816 28.1154 107.37 27.8322 107.524 27.2255L100.872 12.7589C100.411 12.7035 100.103 12.6635 99.5176 13.0669L106.538 28.2417Z" fill="white"/>
</g>
<path d="M109.525 25.1007C112.358 20.8051 109.987 13.7565 103.859 12.7681L109.525 25.1007Z" fill="white"/>
<path d="M44.7676 57.6428H151.743V56.8237H44.7676V57.6428Z" fill="white"/>
<path d="M79.379 64.2512C79.379 63.9371 79.1018 63.6846 78.7939 63.6846C78.486 63.6846 78.2396 63.9371 78.2396 64.2512C78.2396 64.5653 78.486 64.8178 78.7939 64.8178C79.1018 64.8178 79.379 64.5653 79.379 64.2512Z" fill="white"/>
<path d="M108.91 34.3479C109.803 33.5966 111.373 33.5812 112.389 34.0615C112.82 34.2771 113.221 34.5635 113.498 34.9391L111.527 37.9938C111.281 37.7967 111.096 37.7074 110.788 37.5473C109.803 37.1254 108.786 37.3718 108.201 37.9045V46.8191C108.171 48.3618 108.448 49.7691 109.248 50.4989H104.783C103.829 49.7845 103.613 48.6421 103.521 47.6413L103.49 35.786C103.521 34.8252 103.274 34.4033 102.905 33.8645L107.524 33.8829C107.893 34.1508 107.924 34.6158 108.109 34.973L108.91 34.3479Z" fill="white"/>
<path d="M114.545 37.2794C114.514 36.1524 114.76 34.8036 114.021 33.8306H118.301C118.609 34.0461 118.763 34.4033 118.856 34.742C119.102 35.0438 119.071 35.4749 119.164 35.8321L119.225 48.4634C119.379 49.2148 119.687 49.9723 120.241 50.5635L115.653 50.5728C114.144 49.1193 114.637 46.7298 114.514 44.2633L114.545 37.2794Z" fill="white"/>
<path d="M121.35 37.4027C121.812 36.1186 123.259 35.475 124.306 34.776C125.907 34.1879 127.693 32.7221 129.479 33.92C130.988 34.9023 132.312 36.0108 133.267 37.5289C133.482 38.1171 133.606 38.7791 133.76 39.4042C133.76 40.2449 133.944 40.87 133.914 41.7106C133.975 42.6221 133.975 43.4443 133.914 44.3373C133.852 45.8554 133.144 47.2133 131.943 48.2665C130.157 49.8585 127.909 51.6629 125.476 50.4281C123.29 49.4089 120.734 47.3919 120.888 44.6206C120.796 42.656 120.703 40.9593 120.98 39.047C121.073 38.4927 121.042 37.8861 121.35 37.4027ZM125.815 46.3357C126.03 47.1241 126.431 48.0879 127.385 48.1956C127.94 48.2141 128.34 47.7491 128.679 47.355C129.664 45.3904 129.51 43.2472 129.51 41.0116C129.202 39.3519 129.602 37.0824 127.816 36.0632C127.17 35.8322 126.708 36.2602 126.308 36.6544C125.599 37.7075 125.538 38.9146 125.476 40.2541C125.261 42.3973 125.507 44.1741 125.815 46.3357Z" fill="white"/>
<path d="M137.085 50.5359C135.699 49.8123 135.484 47.7676 135.515 42.7945L135.545 35.1733L132.928 35.1702L133.513 33.7599H135.545V30.1509L140.442 28.3464V33.6398L142.659 33.6428L142.074 35.2071L140.442 35.2041V48.3927C140.534 49.4551 140.903 50.0802 141.396 50.5359H137.085Z" fill="white"/>
<path d="M92.4968 35.786C92.466 34.8252 92.2813 34.4033 91.9117 33.8645L96.5307 33.8829C96.9002 34.1508 96.931 34.6158 97.1158 34.973L97.9164 34.3479C98.8094 33.5966 100.38 33.5812 101.396 34.0615C101.827 34.2771 102.227 34.5635 102.505 34.9391L100.534 37.9938C100.287 37.7967 100.103 37.7074 99.7948 37.5473C98.8094 37.1254 97.7932 37.3718 97.2081 37.9045V46.8191C97.1774 48.3618 97.4545 49.7691 98.2551 50.4989H93.7901C92.8663 49.7845 92.5892 48.7221 92.5276 47.6413L92.4968 35.786Z" fill="white"/>
<path d="M57.4852 40.4758L55.8223 43.9369C54.6522 45.9785 53.0509 48.4819 50.5875 49.104C49.6329 49.4365 48.7707 49.1348 47.8469 49.0701L44.86 53.9508C45.1063 54.191 45.4143 54.3911 45.7222 54.5082C50.957 56.5097 53.0817 54.3573 58.2242 42.6836L63.1203 53.0824H69.6176L66.5383 46.0647L68.2935 42.4373L73.0972 52.9223L79.3174 52.9623L68.4167 29.0423L63.3974 31.5334L67.3389 40.4604L65.6145 43.9677L58.4089 28.4233L53.1433 31.1147L57.4852 40.4758Z" fill="white"/>
<path d="M77.4698 44.6943C77.593 42.9607 78.5476 41.3348 80.1488 40.4603C81.75 39.4749 83.5976 39.0838 85.2604 38.2247C85.5376 37.9938 85.8763 37.7074 85.9071 37.3317C85.9379 36.8667 85.6916 36.5095 85.2912 36.3494C82.7662 35.8136 80.7031 37.3841 78.8863 38.9391C79.1018 37.7967 79.2866 36.5465 79.8409 35.4749C80.0872 35.1885 80.272 34.7944 80.6107 34.5819C82.3967 33.7043 84.6138 33.4549 86.5846 33.5965C88.2166 33.7043 89.7255 34.8652 90.2797 36.3494C90.5569 37.0453 90.5261 37.8336 90.5877 38.548L90.6185 48.2324C90.6185 49.07 91.0188 49.8583 91.5114 50.5358H86.8925C86.3382 50.0369 86.0611 49.4087 85.9071 48.6235C84.6138 49.769 81.904 51.4657 80.3028 50.3387C78.6399 49.5904 77.1003 47.0685 77.4698 44.6943ZM85.6608 41.3256C85.63 40.6543 85.1681 40.5834 84.8294 40.5834C83.7208 40.7436 82.7662 41.6704 82.2119 42.6219C81.75 43.4688 81.6269 44.1832 81.5961 44.9253C81.5961 45.7259 81.5345 46.3202 81.8732 46.9268C82.058 47.321 82.4275 47.4996 82.8278 47.6043C83.536 47.749 84.1827 47.5519 84.737 47.1762C86.0611 46.4434 85.8147 44.9776 85.8455 43.6751L85.6608 41.3256Z" fill="white"/>
<path d="M121.504 64.2512C121.504 63.9371 121.227 63.6846 120.919 63.6846C120.611 63.6846 120.365 63.9371 120.365 64.2512C120.365 64.5653 120.611 64.8178 120.919 64.8178C121.227 64.8178 121.504 64.5653 121.504 64.2512Z" fill="white"/>
<path d="M82.7354 61.5814H84.4598C84.8293 61.5814 85.4451 61.566 85.7839 61.7446C86.2458 61.9879 86.4613 62.3512 86.4613 62.9024C86.4613 63.6969 85.9686 64.1988 85.1988 64.3589C85.6607 65.1349 86.1534 65.8801 86.6461 66.6345L86.954 67.1365C86.7077 67.118 86.4613 67.0964 86.215 67.0964C85.9686 67.0964 85.7531 67.118 85.5067 67.1365L84.5214 65.4367C84.3982 65.2181 84.1826 64.8455 83.9979 64.5375H83.9363V67.1365C83.7515 67.118 83.536 67.0964 83.3512 67.0964C83.1357 67.0964 82.9509 67.118 82.7354 67.1365V61.5814ZM83.9363 64.1896C84.7985 64.2696 85.2296 63.8662 85.2296 63.0318C85.2296 62.9178 85.1988 62.7977 85.168 62.6253C85.0448 61.954 84.429 62.0187 83.9363 62.0187V64.1896Z" fill="white"/>
<path d="M91.2651 61.5813C91.2343 61.6952 91.2035 61.8184 91.2035 61.9293C91.2035 62.0432 91.2343 62.1664 91.2651 62.2772C90.7416 62.2126 90.2182 62.1479 89.3868 62.1664V63.9062H90.2182C90.5877 63.9062 90.9264 63.8723 91.2343 63.8323C91.2035 63.9462 91.1727 64.0663 91.1727 64.1802C91.1727 64.2942 91.2035 64.4174 91.2343 64.5282C90.9264 64.4882 90.5877 64.4574 90.2182 64.4574H89.3868V66.5113C90.2182 66.5051 90.7416 66.4651 91.2651 66.4004C91.2343 66.5113 91.2035 66.6344 91.2035 66.7484C91.2035 66.8592 91.2343 66.9824 91.2651 67.0963H88.155V61.5813H91.2651Z" fill="white"/>
<path d="M95.2066 62.6251C95.0218 62.1971 94.7139 61.9231 94.252 61.9231C93.6361 61.9231 93.359 62.2556 93.359 62.7144C93.359 63.8076 95.8224 63.6074 95.8224 65.4612C95.8224 66.4958 94.9602 67.241 93.6977 67.241C93.2358 67.241 92.7739 67.1363 92.4044 66.893C92.4968 66.5512 92.5892 66.2125 92.62 65.8646H92.7739C92.8971 66.4219 93.3282 66.7545 93.8825 66.7545C94.406 66.7545 94.8371 66.4712 94.8371 65.9138C94.8371 64.6174 92.4352 65.0886 92.4352 63.1363C92.4352 62.2064 93.0511 61.4365 94.3136 61.4365C94.8679 61.4365 95.3913 61.6551 95.5761 61.8245C95.4837 62.0832 95.3913 62.3511 95.3298 62.6251H95.2066Z" fill="white"/>
<path d="M99.8256 67.241C98.0396 67.241 96.8386 66.1879 96.8386 64.3495C96.8386 62.7391 98.0088 61.4365 100.041 61.4365C102.351 61.4365 103.028 63.0624 103.028 64.3188C103.028 65.8984 101.827 67.241 99.8256 67.241ZM98.1935 64.5867C98.1935 65.6367 98.6554 66.7545 99.8871 66.7545C101.119 66.7545 101.673 65.5074 101.673 64.1648C101.673 63.1209 101.18 61.9231 99.9795 61.9231C98.871 61.9231 98.1935 62.7729 98.1935 64.5867Z" fill="white"/>
<path d="M104.383 61.5814H106.107C106.477 61.5814 107.062 61.566 107.401 61.7446C107.863 61.9879 108.109 62.3512 108.109 62.9024C108.109 63.6969 107.585 64.1988 106.846 64.3589C107.308 65.1349 107.801 65.8801 108.294 66.6345L108.602 67.1365C108.355 67.118 108.109 67.0964 107.863 67.0964C107.616 67.0964 107.37 67.118 107.124 67.1365L106.169 65.4367C106.046 65.2181 105.83 64.8455 105.645 64.5375H105.584V67.1365C105.368 67.118 105.184 67.0964 104.968 67.0964C104.783 67.0964 104.568 67.118 104.383 67.1365V61.5814ZM105.584 64.1896C106.446 64.2696 106.846 63.8662 106.846 63.0318C106.846 62.9178 106.846 62.7977 106.816 62.6253C106.692 61.954 106.077 62.0187 105.584 62.0187V64.1896Z" fill="white"/>
<path d="M112.05 67.1364C111.866 67.1179 111.65 67.0963 111.435 67.0963C111.25 67.0963 111.034 67.1179 110.849 67.1364V62.1571C110.264 62.1571 109.772 62.2126 109.341 62.2711C109.341 62.1571 109.371 62.0432 109.371 61.9231C109.371 61.8092 109.341 61.6952 109.341 61.5813H113.498C113.498 61.6952 113.467 61.8092 113.467 61.9231C113.467 62.0432 113.498 62.1571 113.498 62.2711C113.036 62.2126 112.543 62.1571 112.05 62.1571V67.1364Z" fill="white"/>
<path d="M117.285 62.6251C117.131 62.1971 116.823 61.9231 116.361 61.9231C115.715 61.9231 115.468 62.2556 115.468 62.7144C115.468 63.8076 117.932 63.6074 117.932 65.4612C117.932 66.4958 117.039 67.241 115.776 67.241C115.345 67.241 114.853 67.1363 114.483 66.893C114.575 66.5512 114.668 66.2125 114.729 65.8646H114.883C114.976 66.4219 115.438 66.7545 115.992 66.7545C116.485 66.7545 116.916 66.4712 116.916 65.9138C116.916 64.6174 114.514 65.0886 114.514 63.1363C114.514 62.2064 115.16 61.4365 116.392 61.4365C116.977 61.4365 117.501 61.6551 117.655 61.8245C117.562 62.0832 117.501 62.3511 117.408 62.6251H117.285Z" fill="white"/>
<path d="M127.231 62.6251C127.047 62.1971 126.739 61.9231 126.277 61.9231C125.661 61.9231 125.384 62.2556 125.384 62.7144C125.384 63.8076 127.847 63.6074 127.847 65.4612C127.847 66.4958 126.985 67.241 125.723 67.241C125.261 67.241 124.799 67.1363 124.429 66.893C124.522 66.5512 124.583 66.2125 124.645 65.8646H124.799C124.922 66.4219 125.353 66.7545 125.907 66.7545C126.431 66.7545 126.862 66.4712 126.862 65.9138C126.862 64.6174 124.46 65.0886 124.46 63.1363C124.46 62.2064 125.107 61.4365 126.308 61.4365C126.893 61.4365 127.416 61.6551 127.601 61.8245C127.509 62.0832 127.416 62.3511 127.355 62.6251H127.231Z" fill="white"/>
<path d="M129.295 61.5813C129.51 61.5998 129.695 61.6244 129.91 61.6244C130.126 61.6244 130.311 61.5998 130.526 61.5813V63.8815C130.526 64.3281 130.495 64.9901 130.588 65.412C130.649 65.8092 130.711 66.0586 130.988 66.3419C131.265 66.5852 131.573 66.6899 131.943 66.6899C132.682 66.6899 133.082 66.4158 133.359 65.7107C133.513 65.3535 133.513 64.4327 133.513 64.0355V61.5813C133.606 61.5998 133.729 61.6059 133.821 61.6059C133.944 61.6059 134.067 61.5998 134.16 61.5813V64.4635C134.129 65.3873 134.16 66.228 133.298 66.813C132.867 67.1271 132.312 67.2411 131.758 67.2411C130.803 67.2411 129.726 66.9331 129.449 65.88C129.356 65.5659 129.295 65.2087 129.295 64.8854V61.5813Z" fill="white"/>
<path d="M136.069 61.5813C136.285 61.5998 136.5 61.6244 136.685 61.6244C136.9 61.6244 137.085 61.5998 137.301 61.5813V67.1364C137.085 67.1179 136.9 67.0963 136.685 67.0963C136.5 67.0963 136.285 67.1179 136.069 67.1364V61.5813Z" fill="white"/>
<path d="M141.396 67.1364C141.181 67.1179 140.965 67.0963 140.78 67.0963C140.565 67.0963 140.38 67.1179 140.165 67.1364V62.1571C139.61 62.1571 139.087 62.2126 138.656 62.2711C138.686 62.1571 138.717 62.0432 138.717 61.9231C138.717 61.8092 138.686 61.6952 138.656 61.5813H142.843C142.813 61.6952 142.782 61.8092 142.782 61.9231C142.782 62.0432 142.813 62.1571 142.843 62.2711C142.351 62.2126 141.889 62.1571 141.396 62.1571V67.1364Z" fill="white"/>
<path d="M147.185 61.5813C147.154 61.6952 147.154 61.8184 147.154 61.9293C147.154 62.0432 147.154 62.1664 147.185 62.2772C146.693 62.2126 146.138 62.1479 145.307 62.1664V63.9062H146.138C146.508 63.9062 146.847 63.8723 147.154 63.8323C147.124 63.9462 147.124 64.0663 147.124 64.1802C147.124 64.2942 147.124 64.4174 147.154 64.5282C146.847 64.4882 146.508 64.4574 146.138 64.4574H145.307V66.5113C146.138 66.5051 146.693 66.4651 147.185 66.4004C147.154 66.5113 147.154 66.6344 147.154 66.7484C147.154 66.8592 147.154 66.9824 147.185 67.0963H144.106V61.5813H147.185Z" fill="white"/>
<path d="M151.127 62.6251C150.973 62.1971 150.665 61.9231 150.203 61.9231C149.556 61.9231 149.31 62.2556 149.31 62.7144C149.31 63.8076 151.774 63.6074 151.774 65.4612C151.774 66.4958 150.881 67.241 149.618 67.241C149.187 67.241 148.694 67.1363 148.325 66.893C148.417 66.5512 148.509 66.2125 148.54 65.8646H148.694C148.817 66.4219 149.248 66.7545 149.834 66.7545C150.326 66.7545 150.757 66.4712 150.757 65.9138C150.757 64.6174 148.356 65.0886 148.356 63.1363C148.356 62.2064 149.002 61.4365 150.234 61.4365C150.819 61.4365 151.342 61.6551 151.496 61.8245C151.404 62.0832 151.342 62.3511 151.25 62.6251H151.127Z" fill="white"/>
<path d="M44.9215 61.5813C45.1371 61.5998 45.3218 61.6244 45.5374 61.6244C45.7221 61.6244 45.9377 61.5998 46.1532 61.5813V63.7768C46.5535 63.7922 46.9846 63.8169 47.3849 63.8169C47.7853 63.8169 48.2164 63.7922 48.6167 63.7768V61.5813C48.8322 61.5998 49.017 61.6244 49.2325 61.6244C49.4173 61.6244 49.6328 61.5998 49.8484 61.5813V67.1364C49.6328 67.1179 49.4173 67.0963 49.2325 67.0963C49.017 67.0963 48.8322 67.1179 48.6167 67.1364V64.4235C48.2164 64.4081 47.7853 64.3835 47.3849 64.3835C46.9846 64.3835 46.5535 64.4081 46.1532 64.4235V67.1364C45.9377 67.1179 45.7221 67.0963 45.5374 67.0963C45.3218 67.0963 45.1371 67.1179 44.9215 67.1364V61.5813Z" fill="white"/>
<path d="M54.2826 67.241C52.4966 67.241 51.2649 66.1879 51.2649 64.3495C51.2649 62.7391 52.4658 61.4365 54.4674 61.4365C56.7769 61.4365 57.4543 63.0624 57.4543 64.3188C57.4543 65.8984 56.2534 67.241 54.2826 67.241ZM52.6198 64.5867C52.6198 65.6367 53.1125 66.7545 54.3134 66.7545C55.5451 66.7545 56.1302 65.5074 56.1302 64.1648C56.1302 63.1209 55.6375 61.9231 54.4058 61.9231C53.2972 61.9231 52.6198 62.7729 52.6198 64.5867Z" fill="white"/>
<path d="M60.472 67.1364C60.2872 67.1179 60.0717 67.0963 59.8869 67.0963C59.6714 67.0963 59.4866 67.1179 59.2711 67.1364V62.1571C58.686 62.1571 58.1933 62.2126 57.7622 62.2711C57.793 62.1571 57.793 62.0432 57.793 61.9231C57.793 61.8092 57.793 61.6952 57.7622 61.5813H61.9193C61.9193 61.6952 61.8885 61.8092 61.8885 61.9231C61.8885 62.0432 61.9193 62.1571 61.9193 62.2711C61.4574 62.2126 60.9647 62.1571 60.472 62.1571V67.1364Z" fill="white"/>
<path d="M66.2303 61.5813C66.2303 61.6952 66.1995 61.8184 66.1995 61.9293C66.1995 62.0432 66.2303 62.1664 66.2303 62.2772C65.7376 62.2126 65.1833 62.1479 64.3519 62.1664V63.9062H65.2141C65.5837 63.9062 65.8916 63.8723 66.1995 63.8323C66.1687 63.9462 66.1687 64.0663 66.1687 64.1802C66.1687 64.2942 66.1687 64.4174 66.1995 64.5282C65.8916 64.4882 65.5837 64.4574 65.2141 64.4574H64.3519V66.5113C65.1833 66.5051 65.7376 66.4651 66.2303 66.4004C66.2303 66.5113 66.1995 66.6344 66.1995 66.7484C66.1995 66.8592 66.2303 66.9824 66.2303 67.0963H63.151V61.5813H66.2303Z" fill="white"/>
<path d="M69.0017 66.5113C69.71 66.5113 70.2951 66.4558 70.8493 66.4004C70.8185 66.5113 70.7877 66.6344 70.7877 66.7484C70.7877 66.8592 70.8185 66.9824 70.8493 67.0963H67.77V61.5813C67.9856 61.5998 68.1703 61.6244 68.3859 61.6244C68.6014 61.6244 68.7862 61.5998 69.0017 61.5813V66.5113Z" fill="white"/>
<path d="M151.958 49.0856C151.958 48.0941 152.759 47.3643 153.713 47.3643C154.668 47.3643 155.469 48.0941 155.469 49.0856C155.469 50.0833 154.668 50.8131 153.713 50.8131C152.759 50.8131 151.958 50.0833 151.958 49.0856ZM153.713 50.5267C154.514 50.5267 155.13 49.917 155.13 49.0856C155.13 48.2696 154.514 47.6506 153.713 47.6506C152.944 47.6506 152.297 48.2696 152.297 49.0856C152.297 49.917 152.944 50.5267 153.713 50.5267ZM153.344 50.0833H153.067V48.094H153.806C154.268 48.094 154.514 48.2696 154.514 48.6606C154.514 49.0178 154.299 49.1718 153.991 49.2088L154.576 50.0833H154.237L153.713 49.2211H153.344V50.0833ZM153.713 48.9655C153.96 48.9655 154.206 48.947 154.206 48.6422C154.206 48.3958 153.991 48.3496 153.775 48.3496H153.344V48.9655H153.713Z" fill="white"/>
</svg>
