<svg width="200" height="80" viewBox="0 0 200 80" fill="none" xmlns="http://www.w3.org/2000/svg">
<path fill-rule="evenodd" clip-rule="evenodd" d="M146.057 62.5198C144.728 64.0608 142.03 63.8295 141.586 61.5761C141.375 60.4588 141.683 59.1108 142.165 58.1668C143.244 56.1058 145.19 54.4111 147.407 53.8525C147.407 55.1238 147.407 56.7995 147.368 58.0898C147.329 59.5151 147.021 61.3831 146.057 62.5198ZM124.609 32.0691C125.842 32.1461 126.825 33.4941 126.498 35.7861C126.093 38.5021 123.838 41.4101 121.275 42.0651C120.87 41.1021 120.678 39.1375 120.909 37.2115C121.333 33.6868 123.144 31.9918 124.609 32.0691ZM76.5667 45.2045C74.659 42.6621 74.7357 39.5805 75.3337 36.6531C77.2027 40.8518 82.194 41.5838 85.2774 40.9675C84.8727 44.2031 83.1764 47.0345 80.2477 47.0345C78.6097 47.0535 77.4143 46.3411 76.5667 45.2045ZM83.3117 33.3401C84.252 34.2994 84.8864 35.6981 85.1767 37.2505C85.1784 37.2501 85.181 37.2694 85.181 37.2694C85.1797 37.2631 85.178 37.2568 85.1767 37.2505C83.0197 37.5578 80.94 37.1531 79.419 35.9788C78.3207 35.1121 78.0313 33.7448 78.494 32.9164C79.168 31.7224 81.192 31.2021 83.3117 33.3401ZM53.943 17.5468C55.272 15.9868 57.9703 16.2368 58.3943 18.4904C58.606 19.5881 58.317 20.9364 57.8357 21.8801C56.756 23.9411 54.8097 25.6358 52.5933 26.2138C52.5933 24.9234 52.574 23.2668 52.6323 21.9764C52.6707 20.5514 52.9793 18.6638 53.943 17.5468ZM152.321 50.9441C152.34 44.2418 152.321 37.5391 152.321 30.8364C152.321 29.1801 147.561 29.0834 147.407 30.7594C147.407 31.4334 147.407 32.1268 147.387 32.8008C147.31 36.4798 145.557 43.3555 142.647 45.8595C141.856 46.5338 141.143 46.5721 140.643 46.2061C140.199 45.8785 140.083 45.0508 140.083 44.3378V43.4135C140.083 39.2725 140.103 34.9964 140.083 30.8554C140.083 29.1991 135.323 29.0834 135.169 30.7594C135.169 34.6111 135.169 38.3481 135.189 42.1615C132.047 47.1691 124.782 49.5191 121.776 43.5868C123.645 44.2995 125.63 43.9528 126.979 43.2401C129.311 42.0075 131.084 39.9658 131.431 36.7301C131.758 27.2538 119.233 25.9634 116.438 35.6131C115.976 37.2115 115.725 38.9258 115.783 40.6015C115.841 42.1998 116.168 43.6828 116.727 44.9928C115.706 45.9941 114.53 46.6875 113.355 46.6491C111.813 46.5915 111.968 44.6848 111.968 43.5868V36.3641C111.968 35.4975 111.968 34.6308 111.89 33.7834C111.64 31.2601 109.713 29.2571 107.015 29.0834C103.179 29.0258 100.482 32.5891 99.152 36.4991C99.133 34.3224 99.152 33.0318 99.152 30.8364C99.133 29.1991 94.72 29.0834 94.219 30.8171C93.583 33.0128 91.5017 34.7268 89.555 35.7474C88.958 34.3031 88.2067 32.9744 87.166 31.8381C82.8874 27.1961 76.7017 28.0438 73.0783 31.8764C70.207 34.9198 69.3403 40.4088 70.8817 44.2608C69.745 45.6091 68.184 46.7068 66.7967 46.6491C66.1023 46.6108 65.7173 46.2061 65.5437 45.5705C65.37 44.9541 65.409 44.2225 65.409 43.5868C65.409 41.1791 65.3893 38.7715 65.409 36.3641C65.409 35.4975 65.409 34.6308 65.332 33.7834C65.0813 31.2601 63.5973 29.2378 60.784 29.0644C55.947 28.8524 54.0007 33.5328 52.574 37.3848V29.1608C53.5957 28.9871 54.5787 28.7368 55.561 28.4481C66.218 25.3858 64.156 14.1954 56.2167 14.0028C50.8593 13.8871 47.6793 17.4118 47.7183 22.7661V26.2331C45.791 25.9441 44.3457 23.4404 43.5363 21.8224C43.4207 21.5721 43.305 21.3218 43.1897 21.0711C43.0933 20.8208 42.8233 20.6861 42.5723 20.7631C42.361 20.8208 42.149 20.8981 41.9367 20.9751C41.1663 21.3218 40.53 21.9188 40.222 22.7084C39.663 24.1144 40.222 25.6168 41.2043 26.6761C42.8233 28.3711 45.4057 28.9871 47.6793 29.1028C47.66 35.7861 47.6793 42.4505 47.6793 49.1338C47.7563 50.0775 49.048 50.3281 49.7993 50.3471C50.5897 50.3665 52.3043 50.1158 52.324 49.0375L52.3817 48.2091C52.7093 45.2431 55.561 33.3788 59.1647 33.3594C60.0517 33.3594 60.495 33.9371 60.495 34.8041V45.3781C60.495 48.6521 62.3447 50.8478 65.698 50.8478C68.2997 50.8671 70.6503 48.9795 72.057 46.6301C72.2497 46.8805 72.404 47.1498 72.616 47.3811C74.4467 49.5191 77.1447 50.8865 80.2284 50.9058C86.9534 50.8095 90.4027 45.0315 90.1527 39.3495C91.7137 38.4828 93.1207 37.3655 94.1994 35.9788V49.1338C94.2764 50.0775 95.6257 50.3281 96.3774 50.3471C97.167 50.3665 98.8827 50.1158 98.8827 49.0375L98.9597 48.2091L99.1904 46.0135C99.5377 42.9511 101.831 33.3788 105.743 33.3594C106.61 33.3594 107.054 33.9371 107.054 34.8041V45.3781C107.054 48.6521 108.903 50.8478 112.275 50.8478C114.607 50.8671 116.727 49.3458 118.153 47.3425C120.042 49.6731 122.933 51.0405 126.401 51.0405C130.468 51.0405 133.416 49.2495 135.381 46.3601C135.825 48.8451 137.154 50.8095 140.411 50.8478C143.783 50.8671 146.347 46.1678 147.407 43.3361V50.9058C146.404 51.0791 145.422 51.3295 144.439 51.6181C133.782 54.6615 135.825 65.8708 143.764 66.0445C149.141 66.1795 152.301 62.6545 152.282 57.3001C152.282 56.3951 152.263 54.7001 152.282 53.8141C154.19 54.1031 155.654 56.6261 156.445 58.2441C156.579 58.4945 156.695 58.7445 156.792 58.9951C156.907 59.2455 157.157 59.3611 157.427 59.3031C157.639 59.2455 157.851 59.1685 158.044 59.0721C158.834 58.7255 159.47 58.1478 159.778 57.3388C160.337 55.9328 159.778 54.4498 158.776 53.3901C157.177 51.6761 154.575 51.0791 152.321 50.9441Z" fill="white"/>
</svg>
