<svg width="200" height="80" viewBox="0 0 200 80" fill="none" xmlns="http://www.w3.org/2000/svg">
<g clip-path="url(#clip0_4_71)">
<path d="M80.18 38.4125C80.0975 36.1603 80.1358 33.9021 80.1594 31.6499C93.1216 31.6882 106.084 31.6587 119.046 31.6646C119.049 33.908 119.049 36.1485 119.046 38.3889C106.09 38.4037 93.1334 38.3595 80.18 38.4125ZM97.7505 10H100.987C101.014 11.0996 101.011 12.1962 101.005 13.2958C102.087 13.2929 103.172 13.2988 104.254 13.2899C104.263 14.3689 104.263 15.4478 104.23 16.5268C103.157 16.5268 102.081 16.5327 101.008 16.5268C101.008 17.5881 101.005 18.6523 101.014 19.7165C99.9467 19.7843 98.8795 19.7696 97.8124 19.7607C97.8065 18.6818 97.8065 17.5999 97.8006 16.518C96.7157 16.5327 95.6338 16.5268 94.5519 16.5297C94.5342 15.4537 94.5372 14.3748 94.5342 13.2988C95.625 13.2958 96.7157 13.2929 97.8035 13.2988C97.78 12.1992 97.8772 11.0937 97.7505 10ZM124.661 24.621C124.661 25.3614 124.515 26.0946 124.232 26.7786C123.949 27.4626 123.534 28.0842 123.01 28.6077C122.486 29.1312 121.865 29.5465 121.181 29.8299C120.497 30.1132 119.764 30.259 119.023 30.259C117.528 30.259 116.094 29.665 115.037 28.6077C113.979 27.5504 113.385 26.1163 113.385 24.621C113.385 23.1258 113.979 21.6917 115.037 20.6344C116.094 19.577 117.528 18.983 119.023 18.983C120.519 18.983 121.953 19.577 123.01 20.6344C124.067 21.6917 124.661 23.1258 124.661 24.621ZM111.705 24.621C111.705 25.3614 111.559 26.0946 111.276 26.7786C110.992 27.4626 110.577 28.0842 110.054 28.6077C109.53 29.1312 108.909 29.5465 108.225 29.8299C107.541 30.1132 106.807 30.259 106.067 30.259C104.572 30.259 103.138 29.665 102.08 28.6077C101.023 27.5504 100.429 26.1163 100.429 24.621C100.429 23.1258 101.023 21.6917 102.08 20.6344C103.138 19.577 104.572 18.983 106.067 18.983C107.562 18.983 108.996 19.577 110.054 20.6344C111.111 21.6917 111.705 23.1258 111.705 24.621ZM98.7487 24.6211C98.7487 26.1164 98.1547 27.5505 97.0973 28.6078C96.04 29.6651 94.606 30.2591 93.1107 30.2591C91.6154 30.2591 90.1813 29.6651 89.124 28.6078C88.0667 27.5505 87.4727 26.1164 87.4727 24.6211C87.4727 23.1259 88.0667 21.6918 89.124 20.6345C90.1813 19.5772 91.6154 18.9832 93.1107 18.9832C94.606 18.9832 96.04 19.5772 97.0973 20.6345C98.1547 21.6918 98.7487 23.1259 98.7487 24.6211ZM85.7923 24.6211C85.7923 26.1164 85.1983 27.5505 84.141 28.6078C83.0837 29.6651 81.6496 30.2591 80.1543 30.2591C78.6591 30.2591 77.225 29.6651 76.1677 28.6078C75.1104 27.5505 74.5164 26.1164 74.5164 24.6211C74.5164 23.1259 75.1104 21.6918 76.1677 20.6345C77.225 19.5772 78.6591 18.9832 80.1543 18.9832C81.6496 18.9832 83.0837 19.5772 84.141 20.6345C85.1983 21.6918 85.7923 23.1259 85.7923 24.6211Z" fill="white"/>
<path d="M108.914 44.1227C114.303 44.105 119.692 44.1581 125.081 44.0962C126.782 48.7216 128.27 53.4265 129.877 58.0872C130.01 57.8779 130.198 57.7011 130.266 57.4564C131.802 53.0079 133.373 48.5712 134.924 44.1257C140.342 44.1198 145.761 44.1168 151.179 44.1286V69.9705C147.862 70.0118 144.543 69.9852 141.227 69.9852C141.221 64.0362 141.256 58.0843 141.209 52.1324C140.746 52.3918 140.699 52.9784 140.501 53.4177C138.576 58.9451 136.601 64.4549 134.676 69.9823C131.557 69.9823 128.435 70.0236 125.319 69.9617C123.365 64.3104 121.343 58.6857 119.37 53.0433C119.3 52.7278 119.123 52.4979 118.846 52.3505C118.837 58.2288 118.849 64.1099 118.843 69.9911C115.532 69.9911 112.221 69.9911 108.911 69.9882C108.917 61.3683 108.908 52.7455 108.914 44.1227ZM48 44.1227C51.2722 44.1227 54.5445 44.1198 57.8197 44.1257C57.8256 47.2564 57.8138 50.3901 57.8226 53.5238C61.0683 50.4166 64.2404 47.2358 67.4861 44.1286C70.7848 44.1198 74.0836 44.1198 77.3824 44.1286C73.5795 47.9934 69.6735 51.758 65.9001 55.6493C70.6551 60.2599 75.2481 65.0415 80.0444 69.602C80.0857 61.1119 80.0503 52.6188 80.0621 44.1257C83.4081 44.1198 86.754 44.1198 90.0999 44.1257C90.0999 50.567 90.094 57.0083 90.0999 63.4496C95.4446 63.4349 100.786 63.4673 106.128 63.4319C106.202 65.6164 106.14 67.8038 106.163 69.9882C93.1747 69.9882 80.183 70 67.1942 69.9823C64.1224 66.8722 61.0094 63.8034 57.9229 60.708C57.8786 63.8063 57.9288 66.9017 57.8963 70C54.5976 69.9764 51.2988 70.0029 48 69.9852V44.1227Z" fill="white"/>
</g>
<defs>
<clipPath id="clip0_4_71">
<rect width="103.179" height="60" fill="white" transform="translate(48 10)"/>
</clipPath>
</defs>
</svg>
