<svg width="200" height="80" viewBox="0 0 200 80" fill="none" xmlns="http://www.w3.org/2000/svg">
<g clip-path="url(#clip0_4_86)">
<path d="M49.0667 26.3333L48.1333 27.6667C54 30.2 56.4 34.6 56.4 39.4C56.4 41.8 55.7333 43.9333 54.5333 43.9333H39.2C37.0667 43.9333 36.5333 43.1333 37.3333 41.2667C39.0667 37.9333 44.1333 31.4 47.2 27.5333C47.6 27 48 26.0667 46.4 25.6667C44.8 25.2667 42 25 39.7333 25C28.1333 25 20 31.4 20 39.6667C20 47.2667 27.0667 54.3333 39.6 54.3333C45.2 54.3333 52 52.7333 56 48.2H52.6667C48.8 51.6667 43.8667 52.4667 39.7333 52.4667C29.6 52.4667 23.0667 47 23.0667 39.5333C23.0667 32.6 30.4 26.4667 39.6 26.4667C40.6667 26.4667 41.0667 26.7333 39.8667 28.2C37.4667 31.1333 33.3333 37.1333 31.3333 40.6C29.2 44.3333 31.3333 47.2667 36.1333 47.2667H55.4667C56.6667 47.2667 57.3333 46.6 58 45.2667C58.5333 44.3333 59.4667 42.2 59.4667 39.4C59.4667 34.0667 55.3333 28.8667 49.0667 26.3333ZM175.067 38.6H162C162.4 36.8667 163.733 35.6667 166.133 35.6667H178.667V32.7333H165.333C157.733 32.7333 155.867 38.2 155.867 41.4H172.133C174.4 41.4 174.4 44.4667 172.267 44.4667H154.4V32.7333H148.933V44.4667H140C137.6 44.4667 136.533 43.2667 136.533 41.5333V32.7333H127.867L120.133 37.6667L113.467 32.7333H94.2667C88.6667 32.7333 84.8 36.0667 84.2667 40.2H88C86.5333 41.1333 85.4667 42.7333 84.8 44.4667H73.4667C71.3333 44.4667 70.4 43.2667 70.4 41.1333V32.7333H64.9333V39.9333C64.9333 44.4667 67.3333 47.4 72.9333 47.4H110.667L118.4 42.4667L125.067 47.4H133.067L122.667 39.6667L131.067 34.2V42.4667C131.067 45 134.267 47.4 137.2 47.4H174.933C181.6 47.4 181.6 38.6 175.067 38.6ZM109.733 44.4667H91.3333C91.4667 42.8667 92.2667 41.2667 94.8 41.2667H106.133V38.4667H91.0667C91.3333 37.4 92.5333 35.6667 95.2 35.6667H107.2V34.0667L115.867 40.4667L109.733 44.4667Z" fill="white"/>
</g>
<defs>
<clipPath id="clip0_4_86">
<rect width="160" height="29.3333" fill="white" transform="translate(20 25)"/>
</clipPath>
</defs>
</svg>
