<svg width="113" height="40" viewBox="0 0 113 40" fill="none" xmlns="http://www.w3.org/2000/svg">
<path d="M1.51707 11.3388C2.32617 10.0038 3.4488 9.12389 4.88496 8.69911C5.67383 8.47661 6.56384 8.36536 7.55499 8.36536C10.4475 8.36536 13.0265 8.69912 15.292 9.36662V12.7042C15.292 12.7042 15.2111 12.6941 15.0493 12.6738C14.9077 12.6536 14.7054 12.6334 14.4425 12.6131C14.1997 12.5929 13.9064 12.5727 13.5626 12.5525C13.2187 12.512 12.8344 12.4817 12.4096 12.4614C12.0051 12.421 11.6005 12.3906 11.196 12.3704C10.2453 12.3097 9.3957 12.2794 8.64728 12.2794C7.89886 12.2794 7.31226 12.33 6.88748 12.4311C6.48293 12.512 6.0885 12.6941 5.70417 12.9772C5.31985 13.2402 5.03666 13.6448 4.85461 14.1909C4.45006 15.3641 4.24779 17.2351 4.24779 19.804C4.24779 22.3729 4.54109 24.2339 5.12769 25.3869C5.73451 26.5196 6.87737 27.086 8.55626 27.086C10.4576 27.086 12.3793 27.0253 14.3211 26.9039L15.292 26.8432V30.1504C13.4716 30.7168 11.1252 31 8.25284 31C8.03034 31 7.79772 31 7.55499 31C4.8445 30.9798 2.90265 30.0088 1.72946 28.0872C0.576485 26.1656 0 23.3135 0 19.531C0 15.7282 0.505689 12.9975 1.51707 11.3388Z" fill="white"/>
<path d="M17.5157 15.4956C19.3564 14.7674 21.8141 14.4033 24.8887 14.4033C26.7496 14.4033 28.1756 14.7977 29.1668 15.5866C30.1782 16.3552 30.6839 17.6903 30.6839 19.5917V30.818H27.316L26.4361 29.0582C26.3552 29.1997 26.0922 29.4222 25.6472 29.7257C25.2224 30.0088 24.6257 30.292 23.8571 30.5752C23.0884 30.8584 22.3501 31 21.6421 31C20.1453 31 18.9923 30.5752 18.1832 29.7257C17.3741 28.8559 16.9696 27.8546 16.9696 26.7219V25.2048C16.9696 23.9102 17.3539 22.8483 18.1225 22.019C18.8912 21.1896 20.0745 20.7851 21.6725 20.8053C23.2705 20.8053 24.4639 20.8053 25.2528 20.8053C26.0416 20.8053 26.4361 20.7952 26.4361 20.775C26.4361 20.4513 26.4361 20.2086 26.4361 20.0468C26.4361 19.8647 26.4361 19.7636 26.4361 19.7434C26.4361 18.9343 26.2641 18.4083 25.9203 18.1656C25.5764 17.9027 24.8887 17.7712 23.8571 17.7712C22.8255 17.7712 20.7117 17.8824 17.5157 18.1049V15.4956ZM21.2174 26.115C21.2174 26.7219 21.3488 27.1264 21.6118 27.3287C21.8748 27.5107 22.2591 27.6018 22.7648 27.6018C23.2705 27.6018 23.8267 27.5006 24.4335 27.2984C25.0606 27.0759 25.5461 26.8635 25.8899 26.6612L26.4361 26.3274V23.3843L22.522 23.6877C21.6523 23.7686 21.2174 24.3148 21.2174 25.3262V26.115Z" fill="white"/>
<path d="M33.1887 25.0834V7.06068H37.4365V24.4159C37.4365 25.488 37.5477 26.2364 37.7702 26.6612C37.9927 27.086 38.3467 27.3894 38.8322 27.5714C40.0458 27.9962 40.7235 28.2086 40.865 28.2086V30.818H37.3454C35.97 30.818 34.9283 30.3831 34.2203 29.5133C33.5326 28.6233 33.1887 27.1466 33.1887 25.0834Z" fill="white"/>
<path d="M46.2035 14.7674C46.9114 14.646 47.7205 14.5853 48.6308 14.5853C49.541 14.5853 50.249 14.6056 50.7547 14.646C51.2603 14.6662 51.766 14.7269 52.2717 14.8281C52.7976 14.909 53.2224 15.0405 53.5461 15.2225C53.8697 15.3843 54.1832 15.6169 54.4866 15.9204C54.7901 16.2035 55.0227 16.5474 55.1845 16.952C55.5486 17.8622 55.7306 18.914 55.7306 20.1075C55.7306 21.2807 55.5587 22.1707 55.2148 22.7775C54.5473 23.9305 53.2224 24.507 51.2401 24.507H46.1124C46.1124 25.2149 46.1731 25.7813 46.2945 26.2061C46.4158 26.6308 46.6384 26.9444 46.962 27.1466C47.2856 27.3287 47.6194 27.4501 47.9633 27.5107C48.3274 27.5512 49.2983 27.5714 50.876 27.5714C52.4538 27.5714 53.9708 27.4602 55.4272 27.2377V30.1201C54.517 30.464 53.5966 30.6764 52.6662 30.7573C51.7559 30.8382 51.1289 30.8887 50.785 30.909C50.4411 30.9292 50.0164 30.9393 49.5107 30.9393C48.8432 30.9595 48.0644 30.9697 47.1744 30.9697C45.1719 30.9697 43.7863 30.3426 43.0176 29.0885C42.249 27.8344 41.8646 25.8015 41.8646 22.9899C41.8646 20.158 42.1681 18.1555 42.7749 16.9823C43.4019 15.7889 44.5448 15.0506 46.2035 14.7674ZM51.4829 20.2288C51.4829 19.2174 51.3413 18.5702 51.0581 18.287C50.7951 17.9836 50.249 17.8319 49.4196 17.8319C48.5903 17.8319 48.0138 17.8622 47.6902 17.9229C47.3868 17.9633 47.0834 18.1049 46.7799 18.3477C46.4968 18.5702 46.3147 18.914 46.2338 19.3793C46.1529 19.8445 46.1124 20.2895 46.1124 20.7143C46.1124 21.1188 46.1124 21.3616 46.1124 21.4425H50.1478C51.0378 21.4425 51.4829 21.0379 51.4829 20.2288Z" fill="white"/>
<path d="M67.3936 14.4336C70.6097 14.4336 72.2178 16.3148 72.2178 20.0771V30.818H67.97V20.0164C67.97 18.5601 67.3733 17.8319 66.1799 17.8319C65.3708 17.8319 64.6831 17.9431 64.1167 18.1656C63.5503 18.3679 62.9435 18.7219 62.2962 19.2276V30.818H58.0484V14.7067H61.4467L62.2962 16.4362C63.7728 15.3641 64.946 14.7472 65.8158 14.5853C66.281 14.4842 66.807 14.4336 67.3936 14.4336Z" fill="white"/>
<path d="M74.4875 23.2023C74.4875 20.775 74.6392 19.0657 74.9426 18.0746C75.246 17.0834 75.5899 16.3654 75.9742 15.9204C76.8036 14.9494 78.0577 14.464 79.7366 14.464C80.4648 14.464 81.284 14.5651 82.1942 14.7674C83.1045 14.9494 83.9136 15.2023 84.6215 15.5259V7H88.8693V30.818H85.3497L84.6215 29.1795C84.0349 29.665 83.2966 30.0898 82.4066 30.4539C81.5166 30.818 80.6266 31 79.7366 31C77.8554 31 76.5103 30.3123 75.7012 28.9368C74.8921 27.5411 74.4875 25.6296 74.4875 23.2023ZM79.6759 18.1656C79.3927 18.3881 79.1601 18.8635 78.978 19.5917C78.8162 20.3198 78.7353 21.4526 78.7353 22.9899C78.7353 24.507 78.9072 25.6195 79.2511 26.3274C79.595 27.0152 80.131 27.359 80.8592 27.359C82.3358 27.359 83.5899 27.0354 84.6215 26.3881V18.4083C83.5697 18.0038 82.3156 17.8015 80.8592 17.8015C80.3535 17.8015 79.9591 17.9229 79.6759 18.1656Z" fill="white"/>
<path d="M91.3471 12.3097V9.6397C91.3471 9.11378 91.5898 8.85082 92.0753 8.85082H95.2611C95.7061 8.85082 95.9286 9.11378 95.9286 9.6397V12.3097C95.9286 12.775 95.7061 13.0076 95.2611 13.0076H92.0753C91.8528 13.0076 91.6707 12.9469 91.5291 12.8255C91.4078 12.7042 91.3471 12.5322 91.3471 12.3097ZM91.4988 30.818V14.7067H95.7466V30.818H91.4988Z" fill="white"/>
<path d="M98.2213 23.0809C98.2213 21.6852 98.3022 20.5221 98.464 19.5917C98.6259 18.641 98.8787 17.842 99.2226 17.1947C99.5664 16.5272 100.042 16.0013 100.649 15.6169C101.761 14.909 103.4 14.555 105.564 14.555C108.335 14.555 110.247 15.1618 111.298 16.3755C112.37 17.5891 112.907 19.7535 112.907 22.8685C112.907 25.9633 112.381 28.0872 111.329 29.2402C110.297 30.3932 108.376 30.9697 105.564 30.9697C102.813 30.9697 100.891 30.3527 99.7991 29.1188C98.7472 27.9254 98.2213 25.9128 98.2213 23.0809ZM103.076 18.8028C102.833 19.1669 102.671 19.6726 102.59 20.3198C102.51 20.9469 102.469 21.8066 102.469 22.8989C102.469 23.9912 102.52 24.8407 102.621 25.4475C102.722 26.0544 102.904 26.5196 103.167 26.8432C103.45 27.1466 103.764 27.3388 104.108 27.4197C104.451 27.5006 104.917 27.5411 105.503 27.5411C106.09 27.5411 106.525 27.5209 106.808 27.4804C107.111 27.4399 107.395 27.3388 107.657 27.177C107.941 27.0152 108.143 26.7623 108.264 26.4185C108.527 25.6903 108.659 24.7092 108.659 23.4753C108.659 22.2212 108.628 21.311 108.568 20.7446C108.527 20.158 108.446 19.6726 108.325 19.2882C108.204 18.8837 108.011 18.6005 107.748 18.4387C107.283 18.1353 106.626 17.9836 105.776 17.9836C104.947 17.9633 104.35 18.0038 103.986 18.1049C103.642 18.2061 103.339 18.4387 103.076 18.8028Z" fill="white"/>
</svg>
