<svg width="200" height="80" viewBox="0 0 200 80" fill="none" xmlns="http://www.w3.org/2000/svg">
<g clip-path="url(#clip0_4_96)">
<path d="M51.0201 19.901C46.9814 19.901 43.2073 22.4523 43.2073 28.2558C43.2073 33.5438 45.5771 36.927 50.8991 36.927C54.5294 36.927 58.8468 34.6808 58.8468 28.3743C58.8455 22.8292 56.1492 19.901 51.0201 19.901ZM50.4264 42.7709C40.0573 42.7709 35 37.43 35 28.7525C35 19.78 42.5002 14.0975 51.6113 14.0975C60.4514 14.0975 67.0516 18.3077 67.0516 28.0075C67.0503 37.077 59.7127 42.7709 50.4264 42.7709ZM86.6793 17.385C85.5713 17.1568 84.5667 17.0119 83.7045 17.0119C81.4456 17.0119 80.151 17.9157 80.151 20.0863V21.8964H85.3696V26.6991H80.151V37.6695C81.6095 37.8031 83.1763 37.9846 84.4671 38.1888V42.2364H68.2768V38.1888C69.7181 37.9701 71.1659 37.7969 72.6181 37.6695V26.6991H67.9692V21.8964H72.6168V20.167C72.6168 14.7404 75.7858 12 82.933 12C84.2414 12 85.652 12.0857 87.1319 12.3227L86.6793 17.385ZM105.794 17.385C104.646 17.1568 103.628 17.0119 102.795 17.0119C100.512 17.0119 99.233 17.9157 99.233 20.0863V21.8964H104.399V26.6991H99.233V37.6695C100.695 37.8031 102.251 37.9846 103.55 38.1888V42.2364H87.389V38.1888C88.821 37.9702 90.2596 37.797 91.7025 37.6695V26.6991H87.0449V21.8964H91.7V20.167C91.7 14.7404 94.8892 12 102.016 12C103.33 12 104.748 12.0857 106.218 12.3227L105.794 17.385ZM114.257 19.78C111.737 19.78 109.653 18.1401 109.653 16.0967C109.653 14.0295 111.736 12.416 114.257 12.416C116.809 12.416 118.881 14.0295 118.881 16.0967C118.881 18.1073 116.809 19.78 114.257 19.78ZM106.173 42.2364V38.1888C107.596 37.9715 109.026 37.7983 110.459 37.6695V26.6335C109.037 26.4418 107.607 26.3156 106.173 26.2554V22.2494C109.755 21.8964 113.85 21.7427 118.03 21.8813V37.6682C119.361 37.7912 120.687 37.9644 122.004 38.1876V42.2339H106.173V42.2364ZM134.038 42.6373C126.104 42.6373 121.77 39.2931 121.77 32.708C121.77 26.5743 125.697 21.4969 135.114 21.4969C136.963 21.4969 139.004 21.7401 140.766 22.1561V29.1243H135.911C135.72 28.2974 135.596 27.5335 135.452 26.839C135.086 26.7054 134.585 26.6966 134.102 26.6966C131.482 26.6966 129.607 28.6176 129.607 31.9593C129.607 35.4358 131.31 37.2485 135.723 37.2485C137.27 37.2485 139.005 36.9636 140.446 36.4367L140.959 41.8318C138.713 42.3549 136.667 42.6373 134.038 42.6373ZM154.103 25.9604C151.93 25.9604 150.35 27.3609 150.166 29.4571H157.598C157.68 27.1907 156.292 25.9604 154.103 25.9604ZM164.784 33.598H150.097C150.167 36.3232 152.125 37.8573 156.195 37.8573C158.633 37.8573 161.155 37.43 163.448 36.5791L164.133 41.2986C161.362 42.2339 158.044 42.7091 155.02 42.7091C146.905 42.7091 142.455 39.4103 142.455 32.282C142.455 26.036 146.682 21.4023 154.298 21.4023C161.735 21.4023 165 25.5343 165 30.8828C165.004 31.7387 164.927 32.6135 164.784 33.598ZM52.2126 50.5572C51.334 50.5572 50.8865 50.5572 50.3293 50.6404V61.791C50.6356 61.8478 51.1701 61.8604 52.0588 61.8604C55.4068 61.8604 58.0728 60.0956 58.0728 56.188C58.0728 52.9509 57.2232 50.5572 52.2126 50.5572ZM51.4411 66.8508C48.5331 66.8508 43.825 66.6668 42.8216 66.6668H39.2619V63.0163C40.3018 62.807 41.5686 62.647 42.8216 62.5978V49.8803C41.5686 49.8488 40.3005 49.7126 39.2619 49.5601V45.8037H42.6212C44.8624 45.8037 48.6553 45.7079 52.6059 45.7079C60.5976 45.7079 66.1793 48.2088 66.1793 55.7581C66.1793 62.8524 60.309 66.8508 51.4411 66.8508Z" fill="white"/>
<path d="M65.9763 66.6667V63.0162C67.0137 62.8044 68.2705 62.6468 69.4945 62.5977V49.8802C68.3165 49.842 67.1418 49.7351 65.9763 49.56V45.8036H85.9974V51.51H80.1636C80.0574 51.1278 79.969 50.7408 79.8989 50.3503H77.0123V54.0361H79.4527C79.5434 53.6353 79.5623 53.5685 79.7199 53.1815H84.6839V58.8438H79.7199C79.5623 58.5035 79.5434 58.3976 79.4527 58.0333H77.0123V62.0909H79.9165C80.0237 61.5174 80.0678 61.3775 80.18 60.8178H86.1209V66.6654L65.9763 66.6667ZM100.004 50.3503C99.9048 50.3503 99.5796 50.3503 99.2292 50.397V56.0568C99.5594 56.1236 99.717 56.1236 99.8582 56.1236C101.905 56.1236 103.752 55.0824 103.752 53.1147C103.752 51.6411 102.76 50.3503 100.004 50.3503ZM100.383 60.2657C100.216 60.2657 99.7548 60.2657 99.2279 60.2455V62.5964C100.457 62.6456 101.696 62.8031 102.77 63.0149V66.6654H88.2134V63.0149C89.3672 62.7876 90.5365 62.6477 91.7114 62.5964V49.8802C90.5403 49.8384 89.3725 49.7315 88.2134 49.56V45.8036H91.6635C92.9618 45.8036 96.9804 45.6662 99.9502 45.6662C107.273 45.6662 111.229 48.0814 111.229 52.6407C111.228 56.6706 107.72 60.2657 100.383 60.2657ZM125.563 50.6541C122.962 50.6541 120.286 52.1731 120.286 56.1248C120.286 59.6921 121.8 61.8464 125.414 61.8464C127.773 61.8464 130.904 60.6275 130.904 56.1891C130.905 52.5247 129.164 50.6541 125.563 50.6541ZM125.04 67.0877C116.487 67.0877 112.274 63.1485 112.274 56.5484C112.274 49.8373 118.484 45.3901 126.162 45.3901C133.256 45.3901 138.917 48.3247 138.917 55.8803C138.917 62.6846 132.815 67.0877 125.04 67.0877ZM157.821 52.7088C157.686 52.0394 157.521 51.3348 157.446 50.5798H155.329V62.5989C156.543 62.6481 157.788 62.8057 158.828 63.0174V66.6679H144.3V63.0174C145.466 62.7866 146.649 62.6467 147.837 62.5989V50.5798H145.695C145.638 51.3361 145.454 52.0394 145.31 52.7088H139.559V45.8036H163.583V52.7088H157.821ZM161.365 64.8868H161.547C161.784 64.8868 161.958 64.791 161.958 64.5868C161.958 64.4317 161.845 64.2893 161.547 64.2893L161.365 64.2918V64.8868ZM161.365 65.812H161.096V64.099C161.24 64.0813 161.365 64.0599 161.569 64.0599C161.807 64.0599 161.978 64.1166 162.088 64.2048C162.169 64.2691 162.227 64.3889 162.227 64.5565C162.227 64.7897 162.088 64.9082 161.917 64.9574V64.9889C162.048 64.9889 162.142 65.1414 162.168 65.3998C162.227 65.6406 162.265 65.7641 162.282 65.8108H161.996C161.955 65.7641 161.936 65.5965 161.907 65.3822C161.866 65.1629 161.74 65.062 161.527 65.062H161.361V65.8108L161.365 65.812ZM161.619 63.6326C160.99 63.6326 160.444 64.2036 160.444 64.9246C160.444 65.6292 160.99 66.2293 161.629 66.2293C162.309 66.2293 162.821 65.628 162.821 64.9397C162.821 64.2036 162.306 63.6326 161.629 63.6326H161.619ZM161.633 63.3842C162.473 63.3842 163.085 64.0813 163.085 64.9259C163.085 65.812 162.473 66.4599 161.619 66.4599C160.818 66.4599 160.143 65.812 160.143 64.9259C160.143 64.0813 160.818 63.3842 161.619 63.3842H161.633Z" fill="white"/>
</g>
<defs>
<clipPath id="clip0_4_96">
<rect width="130" height="55.0878" fill="white" transform="translate(35 12)"/>
</clipPath>
</defs>
</svg>
